<?xml version="1.0" encoding="UTF-8"?>
<svg id="Camada_2" data-name="Camada 2" xmlns="http://www.w3.org/2000/svg" xmlns:xlink="http://www.w3.org/1999/xlink" viewBox="0 0 1318.34 1291.97">
  <defs>
    <style>
      .cls-1 {
        fill: url(#_Áåçûìÿííûé_ãðàäèåíò_109);
      }

      .cls-2 {
        fill: #fff;
      }

      .cls-3 {
        fill: #020230;
        opacity: .3;
        filter: blur(50px);
      }

      .cls-4, .cls-5 {
        opacity: .4;
      }

      .cls-4, .cls-6, .cls-7 {
        fill: #06033e;
      }

      .cls-8 {
        fill: #f8359e;
      }

      .cls-9 {
        fill: url(#_Áåçûìÿííûé_ãðàäèåíò_441);
      }

      .cls-10 {
        fill: url(#_Áåçûìÿííûé_ãðàäèåíò_343);
      }

      .cls-5, .cls-11 {
        fill: none;
      }

      .cls-12 {
        fill: url(#_Áåçûìÿííûé_ãðàäèåíò_343-2);
      }

      .cls-11, .cls-7 {
        opacity: .5;
      }

      .cls-13 {
        fill: url(#_Áåçûìÿííûé_ãðàäèåíò_113);
      }

      .cls-14 {
        fill: #e8975b;
      }

      .cls-15 {
        fill: url(#_Áåçûìÿííûé_ãðàäèåíò_343-3);
      }
    </style>
    <radialGradient id="_Áåçûìÿííûé_ãðàäèåíò_113" data-name="Áåçûìÿííûé ãðàäèåíò 113" cx="635.75" cy="-21.27" fx="635.75" fy="-21.27" r="1019.99" gradientUnits="userSpaceOnUse">
      <stop offset="0" stop-color="#e39a65"/>
      <stop offset=".47" stop-color="#a92ffb"/>
      <stop offset=".59" stop-color="#881bfa"/>
      <stop offset=".74" stop-color="#6507fa"/>
      <stop offset=".8" stop-color="#0d0c6f"/>
    </radialGradient>
    <radialGradient id="_Áåçûìÿííûé_ãðàäèåíò_109" data-name="Áåçûìÿííûé ãðàäèåíò 109" cx="11.9" cy="797.85" fx="11.9" fy="797.85" r="1115.35" gradientUnits="userSpaceOnUse">
      <stop offset="0" stop-color="#e39a65"/>
      <stop offset=".47" stop-color="#a92ffb"/>
      <stop offset=".57" stop-color="#881bfa"/>
      <stop offset=".68" stop-color="#6507fa"/>
      <stop offset=".74" stop-color="#0d0c6f"/>
    </radialGradient>
    <radialGradient id="_Áåçûìÿííûé_ãðàäèåíò_343" data-name="Áåçûìÿííûé ãðàäèåíò 343" cx="114.48" cy="573.98" fx="114.48" fy="573.98" r="1000.18" gradientUnits="userSpaceOnUse">
      <stop offset="0" stop-color="#e39a65"/>
      <stop offset=".47" stop-color="#a92ffb"/>
      <stop offset=".59" stop-color="#881bfa"/>
      <stop offset=".73" stop-color="#6507fa"/>
      <stop offset="1" stop-color="#3919bb"/>
    </radialGradient>
    <radialGradient id="_Áåçûìÿííûé_ãðàäèåíò_343-2" data-name="Áåçûìÿííûé ãðàäèåíò 343" cx="363.65" cy="191.49" fx="363.65" fy="191.49" r="1020.19" xlink:href="#_Áåçûìÿííûé_ãðàäèåíò_343"/>
    <linearGradient id="_Áåçûìÿííûé_ãðàäèåíò_441" data-name="Áåçûìÿííûé ãðàäèåíò 441" x1="475.78" y1="459.29" x2="1293.27" y2="459.29" gradientUnits="userSpaceOnUse">
      <stop offset="0" stop-color="#3919bb"/>
      <stop offset="1" stop-color="#6507fa"/>
    </linearGradient>
    <radialGradient id="_Áåçûìÿííûé_ãðàäèåíò_343-3" data-name="Áåçûìÿííûé ãðàäèåíò 343" cx="-8.78" cy="-26.37" fx="-8.78" fy="-26.37" r="1588.93" xlink:href="#_Áåçûìÿííûé_ãðàäèåíò_343"/>
  </defs>
  <g id="Camada_2-2" data-name="Camada 2">
    <g>
      <path class="cls-3" d="m666.23,1288.22L6.49,907.32c-9.62-5.55-8.41-15.25,2.69-21.66l423.43-244.47c11.1-6.41,27.9-7.11,37.52-1.55l659.74,380.9c9.62,5.55,8.41,15.25-2.69,21.66l-423.43,244.47c-11.1,6.41-27.9,7.11-37.52,1.55Z"/>
      <path class="cls-13" d="m1305.14,381.95L647.99,2.55c-4.52-2.61-9.23-3.15-13.41-1.93h0s0,0,0,0c-.02,0-.04.02-.06.02l-12.17,4.24,4.28,1.01c-1.72,2.03-3.1,4.56-4.01,7.52l-148.61,482.51c-3.68,11.97,1.71,26.5,12.05,32.47l657.14,379.4c1.6.92,3.22,1.56,4.83,1.97l-1.63,3.55,11.62-4.08h-.03c4.76-1.9,8.68-6.16,10.57-12.3l148.61-482.51c3.68-11.97-1.71-26.5-12.05-32.47Z"/>
      <path class="cls-1" d="m1119.68,925.81l.23.28-649.09-374.75c-9.55-5.51-26.23-4.82-37.25,1.54L14.2,795.01l-13.98-5.34,3.93,19.62h.02c.52,2.94,2.59,5.7,6.3,7.84l655.09,378.22c9.55,5.51,26.23,4.82,37.25-1.54l420.44-242.74c5.19-2.99,8.17-6.71,8.91-10.38l.02.03,4.01-19.09-16.5,4.2Z"/>
      <path class="cls-10" d="m666.23,1178.08L6.49,797.18c-9.62-5.55-8.41-15.25,2.69-21.66l423.43-244.47c11.1-6.41,27.9-7.11,37.52-1.55l659.74,380.9c9.62,5.55,8.41,15.25-2.69,21.66l-423.43,244.47c-11.1,6.41-27.9,7.11-37.52,1.55Z"/>
      <path class="cls-2" d="m1127.18,926.93l-423.43,244.47c-11.1,6.41-27.9,7.11-37.52,1.56L6.49,792.05c-3.28-1.89-5.2-4.28-6-6.84-1.27,4.42.59,8.86,6,11.98l659.74,380.9c9.62,5.55,26.41,4.85,37.52-1.55l423.43-244.47c7.32-4.23,10.24-9.87,8.69-14.82-.99,3.44-3.83,6.88-8.69,9.68Z"/>
      <g class="cls-5">
        <path class="cls-6" d="m321.18,735.37l-22.27-12.86c-1.79-1.03-1.56-2.84.5-4.03l26.29-15.18c2.07-1.19,5.19-1.32,6.98-.29l22.27,12.86c1.79,1.03,1.56,2.84-.5,4.03l-26.29,15.18c-2.07,1.19-5.19,1.32-6.98.29Z"/>
        <path class="cls-6" d="m355.58,755.23l-22.27-12.86c-1.79-1.03-1.56-2.84.5-4.03l26.29-15.18c2.07-1.19,5.19-1.32,6.98-.29l22.27,12.86c1.79,1.03,1.56,2.84-.5,4.03l-26.29,15.18c-2.07,1.19-5.19,1.32-6.98.29Z"/>
        <path class="cls-6" d="m389.97,775.09l-22.27-12.86c-1.79-1.03-1.56-2.84.5-4.03l26.29-15.18c2.06-1.19,5.19-1.32,6.98-.29l22.27,12.86c1.79,1.03,1.56,2.84-.5,4.03l-26.29,15.18c-2.07,1.19-5.19,1.32-6.98.29Z"/>
        <path class="cls-6" d="m437.55,758.69l-22.27-12.86c-1.79-1.03-1.56-2.84.5-4.03l22.07-12.74c2.07-1.19,5.19-1.32,6.98-.29l22.27,12.86c1.79,1.03,1.56,2.84-.5,4.03l-22.07,12.74c-2.07,1.19-5.19,1.32-6.98.29Z"/>
        <path class="cls-6" d="m471.95,778.55l-22.27-12.86c-1.79-1.03-1.56-2.84.5-4.03l22.07-12.74c2.07-1.19,5.19-1.32,6.98-.29l22.27,12.86c1.79,1.03,1.56,2.84-.5,4.03l-22.07,12.74c-2.07,1.19-5.19,1.32-6.98.29Z"/>
        <path class="cls-6" d="m506.34,798.41l-22.27-12.86c-1.79-1.03-1.56-2.84.5-4.03l22.07-12.74c2.06-1.19,5.19-1.32,6.98-.29l22.27,12.86c1.79,1.03,1.56,2.84-.5,4.03l-22.07,12.74c-2.06,1.19-5.19,1.32-6.98.29Z"/>
        <path class="cls-6" d="m540.74,818.27l-22.27-12.86c-1.79-1.03-1.56-2.84.5-4.03l22.07-12.74c2.07-1.19,5.19-1.32,6.98-.29l22.27,12.86c1.79,1.03,1.56,2.84-.5,4.03l-22.07,12.74c-2.07,1.19-5.19,1.32-6.98.29Z"/>
        <path class="cls-6" d="m575.14,838.12l-22.27-12.86c-1.79-1.03-1.56-2.84.5-4.03l22.07-12.74c2.07-1.19,5.19-1.32,6.98-.29l22.27,12.86c1.79,1.03,1.56,2.84-.5,4.03l-22.07,12.74c-2.07,1.19-5.19,1.32-6.98.29Z"/>
        <path class="cls-6" d="m609.53,857.98l-22.27-12.86c-1.79-1.03-1.56-2.84.5-4.03l22.07-12.74c2.07-1.19,5.19-1.32,6.98-.29l22.27,12.86c1.79,1.03,1.56,2.84-.5,4.03l-22.07,12.74c-2.07,1.19-5.19,1.32-6.98.29Z"/>
        <path class="cls-6" d="m643.93,877.84l-22.27-12.86c-1.79-1.03-1.56-2.84.5-4.03l22.07-12.74c2.07-1.19,5.19-1.32,6.98-.29l22.27,12.86c1.79,1.03,1.56,2.84-.5,4.03l-22.07,12.74c-2.07,1.19-5.19,1.32-6.98.29Z"/>
        <path class="cls-6" d="m678.33,897.7l-22.27-12.86c-1.79-1.03-1.56-2.84.5-4.03l22.07-12.74c2.07-1.19,5.19-1.32,6.98-.29l22.27,12.86c1.79,1.03,1.56,2.84-.5,4.03l-22.07,12.74c-2.07,1.19-5.19,1.32-6.98.29Z"/>
        <path class="cls-6" d="m712.73,917.56l-22.27-12.86c-1.79-1.03-1.56-2.84.5-4.03l22.07-12.74c2.07-1.19,5.19-1.32,6.98-.29l22.27,12.86c1.79,1.03,1.56,2.84-.5,4.03l-22.07,12.74c-2.07,1.19-5.19,1.32-6.98.29Z"/>
        <path class="cls-6" d="m747.12,937.42l-22.27-12.86c-1.79-1.03-1.56-2.84.5-4.03l22.07-12.74c2.07-1.19,5.19-1.32,6.98-.29l22.27,12.86c1.79,1.03,1.56,2.84-.5,4.03l-22.07,12.74c-2.06,1.19-5.19,1.32-6.98.29Z"/>
        <path class="cls-6" d="m488.23,749.28l-22.27-12.86c-1.79-1.03-1.56-2.84.5-4.03l22.07-12.74c2.07-1.19,5.19-1.32,6.98-.29l22.27,12.86c1.79,1.03,1.56,2.84-.5,4.03l-22.07,12.74c-2.07,1.19-5.19,1.32-6.98.29Z"/>
        <path class="cls-6" d="m453.32,729.13l-22.27-12.86c-1.79-1.03-1.56-2.84.5-4.03l22.07-12.74c2.07-1.19,5.19-1.32,6.98-.29l22.27,12.86c1.79,1.03,1.56,2.84-.5,4.03l-22.07,12.74c-2.07,1.19-5.19,1.32-6.98.29Z"/>
        <path class="cls-6" d="m418.35,708.94l-47.97-27.7c-1.79-1.03-1.56-2.84.5-4.03l22.07-12.74c2.07-1.19,5.19-1.32,6.98-.29l47.97,27.7c1.79,1.03,1.56,2.84-.5,4.03l-22.07,12.74c-2.07,1.19-5.19,1.32-6.98.29Z"/>
        <path class="cls-6" d="m442.79,684.39l-38.93-22.48c-1.79-1.03-1.56-2.84.5-4.03l22.07-12.74c2.07-1.19,5.19-1.32,6.98-.29l38.93,22.48c1.79,1.03,1.56,2.84-.5,4.03l-22.07,12.74c-2.07,1.19-5.19,1.32-6.98.29Z"/>
        <path class="cls-6" d="m522.63,769.14l-22.27-12.86c-1.79-1.03-1.56-2.84.5-4.03l22.07-12.74c2.07-1.19,5.19-1.32,6.98-.29l22.27,12.86c1.79,1.03,1.56,2.84-.5,4.03l-22.07,12.74c-2.07,1.19-5.19,1.32-6.98.29Z"/>
        <path class="cls-6" d="m557.03,789l-22.27-12.86c-1.79-1.03-1.56-2.84.5-4.03l22.07-12.74c2.07-1.19,5.19-1.32,6.98-.29l22.27,12.86c1.79,1.03,1.56,2.84-.5,4.03l-22.07,12.74c-2.07,1.19-5.19,1.32-6.98.29Z"/>
        <path class="cls-6" d="m591.42,808.86l-22.27-12.86c-1.79-1.03-1.56-2.84.5-4.03l22.07-12.74c2.07-1.19,5.19-1.32,6.98-.29l22.27,12.86c1.79,1.03,1.56,2.84-.5,4.03l-22.07,12.74c-2.07,1.19-5.19,1.32-6.98.29Z"/>
        <path class="cls-6" d="m625.82,828.72l-22.27-12.86c-1.79-1.03-1.56-2.84.5-4.03l22.07-12.74c2.07-1.19,5.19-1.32,6.98-.29l22.27,12.86c1.79,1.03,1.56,2.84-.5,4.03l-22.07,12.74c-2.07,1.19-5.19,1.32-6.98.29Z"/>
        <path class="cls-6" d="m660.22,848.58l-22.27-12.86c-1.79-1.03-1.56-2.84.5-4.03l22.07-12.74c2.06-1.19,5.19-1.32,6.98-.29l22.27,12.86c1.79,1.03,1.56,2.84-.5,4.03l-22.07,12.74c-2.06,1.19-5.19,1.32-6.98.29Z"/>
        <path class="cls-6" d="m694.61,868.44l-22.27-12.86c-1.79-1.03-1.56-2.84.5-4.03l22.07-12.74c2.07-1.19,5.19-1.32,6.98-.29l22.27,12.86c1.79,1.03,1.56,2.84-.5,4.03l-22.07,12.74c-2.07,1.19-5.19,1.32-6.98.29Z"/>
        <path class="cls-6" d="m729.01,888.3l-22.27-12.86c-1.79-1.03-1.56-2.84.5-4.03l22.07-12.74c2.07-1.19,5.19-1.32,6.98-.29l22.27,12.86c1.79,1.03,1.56,2.84-.5,4.03l-22.07,12.74c-2.07,1.19-5.19,1.32-6.98.29Z"/>
        <path class="cls-6" d="m763.41,908.16l-22.27-12.86c-1.79-1.03-1.56-2.84.5-4.03l22.07-12.74c2.06-1.19,5.19-1.32,6.98-.29l22.27,12.86c1.79,1.03,1.56,2.84-.5,4.03l-22.07,12.74c-2.06,1.19-5.19,1.32-6.98.29Z"/>
        <path class="cls-6" d="m797.81,928.02l-22.27-12.86c-1.79-1.03-1.56-2.84.5-4.03l22.07-12.74c2.07-1.19,5.19-1.32,6.98-.29l22.27,12.86c1.79,1.03,1.56,2.84-.5,4.03l-22.07,12.74c-2.07,1.19-5.19,1.32-6.98.29Z"/>
        <path class="cls-6" d="m858.96,963.32l-48.6-28.06c-1.79-1.03-1.56-2.84.5-4.03l22.07-12.74c2.06-1.19,5.19-1.32,6.98-.29l48.6,28.06c1.79,1.03,1.56,2.84-.5,4.03l-22.07,12.74c-2.07,1.19-5.19,1.32-6.98.29Z"/>
        <path class="cls-6" d="m925.93,924.66l-41.02-23.68c-1.79-1.03-1.56-2.84.5-4.03l22.07-12.74c2.07-1.19,5.19-1.32,6.98-.29l41.02,23.68c1.79,1.03,1.56,2.84-.5,4.03l-22.07,12.74c-2.06,1.19-5.19,1.32-6.98.29Z"/>
        <path class="cls-6" d="m582.86,765.26l-22.27-12.86c-1.79-1.03-1.56-2.84.5-4.03l22.07-12.74c2.07-1.19,5.19-1.32,6.98-.29l22.27,12.86c1.79,1.03,1.56,2.84-.5,4.03l-22.07,12.74c-2.07,1.19-5.19,1.32-6.98.29Z"/>
        <path class="cls-6" d="m547.61,744.91l-22.27-12.86c-1.79-1.03-1.56-2.84.5-4.03l22.07-12.74c2.07-1.19,5.19-1.32,6.98-.29l22.27,12.86c1.79,1.03,1.56,2.84-.5,4.03l-22.07,12.74c-2.07,1.19-5.19,1.32-6.98.29Z"/>
        <path class="cls-6" d="m512.36,724.55l-22.27-12.86c-1.79-1.03-1.56-2.84.5-4.03l22.07-12.74c2.07-1.19,5.19-1.32,6.98-.29l22.27,12.86c1.79,1.03,1.56,2.84-.5,4.03l-22.07,12.74c-2.07,1.19-5.19,1.32-6.98.29Z"/>
        <path class="cls-6" d="m477.11,704.2l-22.27-12.86c-1.79-1.03-1.56-2.84.5-4.03l22.07-12.74c2.07-1.19,5.19-1.32,6.98-.29l22.27,12.86c1.79,1.03,1.56,2.84-.5,4.03l-22.07,12.74c-2.07,1.19-5.19,1.32-6.98.29Z"/>
        <path class="cls-6" d="m617.26,785.12l-22.27-12.86c-1.79-1.03-1.56-2.84.5-4.03l22.07-12.74c2.06-1.19,5.19-1.32,6.98-.29l22.27,12.86c1.79,1.03,1.56,2.84-.5,4.03l-22.07,12.74c-2.06,1.19-5.19,1.32-6.98.29Z"/>
        <path class="cls-6" d="m651.66,804.98l-22.27-12.86c-1.79-1.03-1.56-2.84.5-4.03l22.07-12.74c2.07-1.19,5.19-1.32,6.98-.29l22.27,12.86c1.79,1.03,1.56,2.84-.5,4.03l-22.07,12.74c-2.07,1.19-5.19,1.32-6.98.29Z"/>
        <path class="cls-6" d="m686.06,824.84l-22.27-12.86c-1.79-1.03-1.56-2.84.5-4.03l22.07-12.74c2.07-1.19,5.19-1.32,6.98-.29l22.27,12.86c1.79,1.03,1.56,2.84-.5,4.03l-22.07,12.74c-2.07,1.19-5.19,1.32-6.98.29Z"/>
        <path class="cls-6" d="m720.45,844.7l-22.27-12.86c-1.79-1.03-1.56-2.84.5-4.03l22.07-12.74c2.07-1.19,5.19-1.32,6.98-.29l22.27,12.86c1.79,1.03,1.56,2.84-.5,4.03l-22.07,12.74c-2.07,1.19-5.19,1.32-6.98.29Z"/>
        <path class="cls-6" d="m754.85,864.56l-22.27-12.86c-1.79-1.03-1.56-2.84.5-4.03l22.07-12.74c2.07-1.19,5.19-1.32,6.98-.29l22.27,12.86c1.79,1.03,1.56,2.84-.5,4.03l-22.07,12.74c-2.07,1.19-5.19,1.32-6.98.29Z"/>
        <path class="cls-6" d="m789.25,884.41l-22.27-12.86c-1.79-1.03-1.56-2.84.5-4.03l22.07-12.74c2.07-1.19,5.19-1.32,6.98-.29l22.27,12.86c1.79,1.03,1.56,2.84-.5,4.03l-22.07,12.74c-2.07,1.19-5.19,1.32-6.98.29Z"/>
        <path class="cls-6" d="m823.65,904.27l-22.27-12.86c-1.79-1.03-1.56-2.84.5-4.03l22.07-12.74c2.07-1.19,5.19-1.32,6.98-.29l22.27,12.86c1.79,1.03,1.56,2.84-.5,4.03l-22.07,12.74c-2.07,1.19-5.19,1.32-6.98.29Z"/>
        <path class="cls-6" d="m858.04,924.13l-22.27-12.86c-1.79-1.03-1.56-2.84.5-4.03l22.07-12.74c2.06-1.19,5.19-1.32,6.98-.29l22.27,12.86c1.79,1.03,1.56,2.84-.5,4.03l-22.07,12.74c-2.06,1.19-5.19,1.32-6.98.29Z"/>
        <path class="cls-6" d="m892.44,943.99l-22.27-12.86c-1.79-1.03-1.56-2.84.5-4.03l22.07-12.74c2.07-1.19,5.19-1.32,6.98-.29l22.27,12.86c1.79,1.03,1.56,2.84-.5,4.03l-22.07,12.74c-2.07,1.19-5.19,1.32-6.98.29Z"/>
        <path class="cls-6" d="m564.75,716.14l-22.27-12.86c-1.79-1.03-1.56-2.84.5-4.03l22.07-12.74c2.07-1.19,5.19-1.32,6.98-.29l22.27,12.86c1.79,1.03,1.56,2.84-.5,4.03l-22.07,12.74c-2.07,1.19-5.19,1.32-6.98.29Z"/>
        <path class="cls-6" d="m530.53,696.38l-22.27-12.86c-1.79-1.03-1.56-2.84.5-4.03l22.07-12.74c2.07-1.19,5.19-1.32,6.98-.29l22.27,12.86c1.79,1.03,1.56,2.84-.5,4.03l-22.07,12.74c-2.07,1.19-5.19,1.32-6.98.29Z"/>
        <path class="cls-6" d="m496.3,676.62l-22.27-12.86c-1.79-1.03-1.56-2.84.5-4.03l22.07-12.74c2.07-1.19,5.19-1.32,6.98-.29l22.27,12.86c1.79,1.03,1.56,2.84-.5,4.03l-22.07,12.74c-2.07,1.19-5.19,1.32-6.98.29Z"/>
        <path class="cls-6" d="m462.07,656.86l-22.27-12.86c-1.79-1.03-1.56-2.84.5-4.03l22.07-12.74c2.07-1.19,5.19-1.32,6.98-.29l22.27,12.86c1.79,1.03,1.56,2.84-.5,4.03l-22.07,12.74c-2.07,1.19-5.19,1.32-6.98.29Z"/>
        <path class="cls-6" d="m497.27,636.54l-22.27-12.86c-1.79-1.03-1.56-2.84.5-4.03l7.3-4.21c2.07-1.19,5.19-1.32,6.98-.29l22.27,12.86c1.79,1.03,1.56,2.84-.5,4.03l-7.3,4.21c-2.07,1.19-5.19,1.32-6.98.29Z"/>
        <path class="cls-6" d="m541.93,662.32l-22.27-12.86c-1.79-1.03-1.56-2.84.5-4.03l7.3-4.21c2.07-1.19,5.19-1.32,6.98-.29l22.27,12.86c1.79,1.03,1.56,2.84-.5,4.03l-7.3,4.21c-2.07,1.19-5.19,1.32-6.98.29Z"/>
        <path class="cls-6" d="m576.02,682l-22.27-12.86c-1.79-1.03-1.56-2.84.5-4.03l7.3-4.21c2.07-1.19,5.19-1.32,6.98-.29l22.27,12.86c1.79,1.03,1.56,2.84-.5,4.03l-7.3,4.21c-2.07,1.19-5.19,1.32-6.98.29Z"/>
        <path class="cls-6" d="m610.1,701.68l-22.27-12.86c-1.79-1.03-1.56-2.84.5-4.03l7.3-4.21c2.07-1.19,5.19-1.32,6.98-.29l22.27,12.86c1.79,1.03,1.56,2.84-.5,4.03l-7.3,4.21c-2.07,1.19-5.19,1.32-6.98.29Z"/>
        <path class="cls-6" d="m644.18,721.36l-22.27-12.86c-1.79-1.03-1.56-2.84.5-4.03l7.3-4.21c2.06-1.19,5.19-1.32,6.98-.29l22.27,12.86c1.79,1.03,1.56,2.84-.5,4.03l-7.3,4.21c-2.06,1.19-5.19,1.32-6.98.29Z"/>
        <path class="cls-6" d="m834.47,831.22l-22.27-12.86c-1.79-1.03-1.56-2.84.5-4.03l7.3-4.21c2.07-1.19,5.19-1.32,6.98-.29l22.27,12.86c1.79,1.03,1.56,2.84-.5,4.03l-7.3,4.21c-2.07,1.19-5.19,1.32-6.98.29Z"/>
        <path class="cls-6" d="m868.55,850.9l-22.27-12.86c-1.79-1.03-1.56-2.84.5-4.03l7.3-4.21c2.07-1.19,5.19-1.32,6.98-.29l22.27,12.86c1.79,1.03,1.56,2.84-.5,4.03l-7.3,4.21c-2.07,1.19-5.19,1.32-6.98.29Z"/>
        <path class="cls-6" d="m902.64,870.58l-22.27-12.86c-1.79-1.03-1.56-2.84.5-4.03l7.3-4.21c2.07-1.19,5.19-1.32,6.98-.29l22.27,12.86c1.79,1.03,1.56,2.84-.5,4.03l-7.3,4.21c-2.07,1.19-5.19,1.32-6.98.29Z"/>
        <path class="cls-6" d="m936.72,890.25l-22.27-12.86c-1.79-1.03-1.56-2.84.5-4.03l7.3-4.21c2.07-1.19,5.19-1.32,6.98-.29l22.27,12.86c1.79,1.03,1.56,2.84-.5,4.03l-7.3,4.21c-2.07,1.19-5.19,1.32-6.98.29Z"/>
        <path class="cls-6" d="m599.15,736l-22.27-12.86c-1.79-1.03-1.56-2.84.5-4.03l22.07-12.74c2.07-1.19,5.19-1.32,6.98-.29l22.27,12.86c1.79,1.03,1.56,2.84-.5,4.03l-22.07,12.74c-2.07,1.19-5.19,1.32-6.98.29Z"/>
        <path class="cls-6" d="m633.55,755.86l-22.27-12.86c-1.79-1.03-1.56-2.84.5-4.03l22.07-12.74c2.07-1.19,5.19-1.32,6.98-.29l22.27,12.86c1.79,1.03,1.56,2.84-.5,4.03l-22.07,12.74c-2.07,1.19-5.19,1.32-6.98.29Z"/>
        <path class="cls-6" d="m667.94,775.72l-22.27-12.86c-1.79-1.03-1.56-2.84.5-4.03l22.07-12.74c2.07-1.19,5.19-1.32,6.98-.29l22.27,12.86c1.79,1.03,1.56,2.84-.5,4.03l-22.07,12.74c-2.07,1.19-5.19,1.32-6.98.29Z"/>
        <path class="cls-6" d="m702.34,795.58l-22.27-12.86c-1.79-1.03-1.56-2.84.5-4.03l22.07-12.74c2.07-1.19,5.19-1.32,6.98-.29l22.27,12.86c1.79,1.03,1.56,2.84-.5,4.03l-22.07,12.74c-2.07,1.19-5.19,1.32-6.98.29Z"/>
        <path class="cls-6" d="m736.74,815.43l-22.27-12.86c-1.79-1.03-1.56-2.84.5-4.03l22.07-12.74c2.07-1.19,5.19-1.32,6.98-.29l22.27,12.86c1.79,1.03,1.56,2.84-.5,4.03l-22.07,12.74c-2.07,1.19-5.19,1.32-6.98.29Z"/>
        <path class="cls-6" d="m771.14,835.29l-22.27-12.86c-1.79-1.03-1.56-2.84.5-4.03l22.07-12.74c2.06-1.19,5.19-1.32,6.98-.29l22.27,12.86c1.79,1.03,1.56,2.84-.5,4.03l-22.07,12.74c-2.06,1.19-5.19,1.32-6.98.29Z"/>
        <path class="cls-6" d="m805.53,855.15l-22.27-12.86c-1.79-1.03-1.56-2.84.5-4.03l22.07-12.74c2.07-1.19,5.19-1.32,6.98-.29l22.27,12.86c1.79,1.03,1.56,2.84-.5,4.03l-22.07,12.74c-2.07,1.19-5.19,1.32-6.98.29Z"/>
        <path class="cls-6" d="m839.93,875.01l-22.27-12.86c-1.79-1.03-1.56-2.84.5-4.03l22.07-12.74c2.07-1.19,5.19-1.32,6.98-.29l22.27,12.86c1.79,1.03,1.56,2.84-.5,4.03l-22.07,12.74c-2.07,1.19-5.19,1.32-6.98.29Z"/>
        <path class="cls-6" d="m874.33,894.87l-22.27-12.86c-1.79-1.03-1.56-2.84.5-4.03l22.07-12.74c2.06-1.19,5.19-1.32,6.98-.29l22.27,12.86c1.79,1.03,1.56,2.84-.5,4.03l-22.07,12.74c-2.06,1.19-5.19,1.32-6.98.29Z"/>
        <path class="cls-6" d="m402.49,738.45l-65.6-37.87c-1.79-1.03-1.56-2.84.5-4.03l22.07-12.74c2.07-1.19,5.19-1.32,6.98-.29l65.6,37.87c1.79,1.03,1.56,2.84-.5,4.03l-22.07,12.74c-2.07,1.19-5.19,1.32-6.98.29Z"/>
        <path class="cls-6" d="m825.07,982.43l-65.6-37.87c-1.79-1.03-1.56-2.84.5-4.03l22.07-12.74c2.06-1.19,5.19-1.32,6.98-.29l65.6,37.87c1.79,1.03,1.56,2.84-.5,4.03l-22.07,12.74c-2.07,1.19-5.19,1.32-6.98.29Z"/>
        <path class="cls-6" d="m687.51,946.87l-22.27-12.86c-1.79-1.03-1.56-2.84.5-4.03l26.29-15.18c2.07-1.19,5.19-1.32,6.98-.29l22.27,12.86c1.79,1.03,1.56,2.84-.5,4.03l-26.29,15.18c-2.07,1.19-5.19,1.32-6.98.29Z"/>
        <path class="cls-6" d="m437.72,802.65l-35.62-20.57c-1.79-1.03-1.56-2.84.5-4.03l26.29-15.18c2.07-1.19,5.19-1.32,6.98-.29l35.62,20.57c1.79,1.03,1.56,2.84-.5,4.03l-26.29,15.18c-2.07,1.19-5.19,1.32-6.98.29Z"/>
        <path class="cls-6" d="m654.37,927.74l-35.62-20.57c-1.79-1.03-1.56-2.84.5-4.03l26.29-15.18c2.07-1.19,5.19-1.32,6.98-.29l35.62,20.57c1.79,1.03,1.56,2.84-.5,4.03l-26.29,15.18c-2.07,1.19-5.19,1.32-6.98.29Z"/>
        <path class="cls-6" d="m487.35,831.31l-35.62-20.57c-1.79-1.03-1.56-2.84.5-4.03l26.29-15.18c2.07-1.19,5.19-1.32,6.98-.29l35.62,20.57c1.79,1.03,1.56,2.84-.5,4.03l-26.29,15.18c-2.07,1.19-5.19,1.32-6.98.29Z"/>
        <path class="cls-6" d="m485.74,791.38l154.87,89.42c1.92,1.11,1.92,2.91,0,4.02l-26.81,15.48c-1.92,1.11-5.04,1.11-6.96,0l-154.87-89.42,33.77-19.5Z"/>
        <path class="cls-6" d="m783.65,982.88l24.81,14.32c1.47.85,1.28,2.32-.41,3.3l-10.76,6.21c-1.69.98-4.25,1.08-5.72.24l-24.81-14.32c-1.47-.85-1.28-2.32.41-3.3l10.75-6.21c1.69-.98,4.25-1.08,5.72-.24Z"/>
        <path class="cls-6" d="m748.97,962.86l24.81,14.32c1.47.85,1.28,2.32-.41,3.3l-10.76,6.21c-1.69.98-4.25,1.08-5.72.24l-24.81-14.32c-1.47-.85-1.28-2.32.41-3.3l10.75-6.21c1.69-.98,4.25-1.08,5.72-.24Z"/>
        <path class="cls-6" d="m714.57,943l24.81,14.32c1.47.85,1.28,2.32-.41,3.3l-10.75,6.21c-1.69.98-4.25,1.08-5.72.24l-24.81-14.32c-1.47-.85-1.28-2.32.41-3.3l10.75-6.21c1.69-.98,4.25-1.08,5.72-.24Z"/>
        <path class="cls-6" d="m767.96,951.89l24.81,14.32c1.47.85,1.28,2.32-.41,3.3l-10.76,6.21c-1.69.98-4.25,1.08-5.72.24l-24.81-14.32c-1.47-.85-1.28-2.33.41-3.3l10.76-6.21c1.69-.98,4.25-1.08,5.72-.24Z"/>
      </g>
      <g class="cls-5">
        <path class="cls-6" d="m321.18,735.37l-22.27-12.86c-1.79-1.03-1.56-2.84.5-4.03l26.29-15.18c2.07-1.19,5.19-1.32,6.98-.29l22.27,12.86c1.79,1.03,1.56,2.84-.5,4.03l-26.29,15.18c-2.07,1.19-5.19,1.32-6.98.29Z"/>
        <path class="cls-6" d="m355.58,755.23l-22.27-12.86c-1.79-1.03-1.56-2.84.5-4.03l26.29-15.18c2.07-1.19,5.19-1.32,6.98-.29l22.27,12.86c1.79,1.03,1.56,2.84-.5,4.03l-26.29,15.18c-2.07,1.19-5.19,1.32-6.98.29Z"/>
        <path class="cls-6" d="m389.97,775.09l-22.27-12.86c-1.79-1.03-1.56-2.84.5-4.03l26.29-15.18c2.06-1.19,5.19-1.32,6.98-.29l22.27,12.86c1.79,1.03,1.56,2.84-.5,4.03l-26.29,15.18c-2.07,1.19-5.19,1.32-6.98.29Z"/>
        <path class="cls-6" d="m437.55,758.69l-22.27-12.86c-1.79-1.03-1.56-2.84.5-4.03l22.07-12.74c2.07-1.19,5.19-1.32,6.98-.29l22.27,12.86c1.79,1.03,1.56,2.84-.5,4.03l-22.07,12.74c-2.07,1.19-5.19,1.32-6.98.29Z"/>
        <path class="cls-6" d="m471.95,778.55l-22.27-12.86c-1.79-1.03-1.56-2.84.5-4.03l22.07-12.74c2.07-1.19,5.19-1.32,6.98-.29l22.27,12.86c1.79,1.03,1.56,2.84-.5,4.03l-22.07,12.74c-2.07,1.19-5.19,1.32-6.98.29Z"/>
        <path class="cls-6" d="m506.34,798.41l-22.27-12.86c-1.79-1.03-1.56-2.84.5-4.03l22.07-12.74c2.06-1.19,5.19-1.32,6.98-.29l22.27,12.86c1.79,1.03,1.56,2.84-.5,4.03l-22.07,12.74c-2.06,1.19-5.19,1.32-6.98.29Z"/>
        <path class="cls-6" d="m540.74,818.27l-22.27-12.86c-1.79-1.03-1.56-2.84.5-4.03l22.07-12.74c2.07-1.19,5.19-1.32,6.98-.29l22.27,12.86c1.79,1.03,1.56,2.84-.5,4.03l-22.07,12.74c-2.07,1.19-5.19,1.32-6.98.29Z"/>
        <path class="cls-6" d="m575.14,838.12l-22.27-12.86c-1.79-1.03-1.56-2.84.5-4.03l22.07-12.74c2.07-1.19,5.19-1.32,6.98-.29l22.27,12.86c1.79,1.03,1.56,2.84-.5,4.03l-22.07,12.74c-2.07,1.19-5.19,1.32-6.98.29Z"/>
        <path class="cls-6" d="m609.53,857.98l-22.27-12.86c-1.79-1.03-1.56-2.84.5-4.03l22.07-12.74c2.07-1.19,5.19-1.32,6.98-.29l22.27,12.86c1.79,1.03,1.56,2.84-.5,4.03l-22.07,12.74c-2.07,1.19-5.19,1.32-6.98.29Z"/>
        <path class="cls-6" d="m643.93,877.84l-22.27-12.86c-1.79-1.03-1.56-2.84.5-4.03l22.07-12.74c2.07-1.19,5.19-1.32,6.98-.29l22.27,12.86c1.79,1.03,1.56,2.84-.5,4.03l-22.07,12.74c-2.07,1.19-5.19,1.32-6.98.29Z"/>
        <path class="cls-6" d="m678.33,897.7l-22.27-12.86c-1.79-1.03-1.56-2.84.5-4.03l22.07-12.74c2.07-1.19,5.19-1.32,6.98-.29l22.27,12.86c1.79,1.03,1.56,2.84-.5,4.03l-22.07,12.74c-2.07,1.19-5.19,1.32-6.98.29Z"/>
        <path class="cls-6" d="m712.73,917.56l-22.27-12.86c-1.79-1.03-1.56-2.84.5-4.03l22.07-12.74c2.07-1.19,5.19-1.32,6.98-.29l22.27,12.86c1.79,1.03,1.56,2.84-.5,4.03l-22.07,12.74c-2.07,1.19-5.19,1.32-6.98.29Z"/>
        <path class="cls-6" d="m747.12,937.42l-22.27-12.86c-1.79-1.03-1.56-2.84.5-4.03l22.07-12.74c2.07-1.19,5.19-1.32,6.98-.29l22.27,12.86c1.79,1.03,1.56,2.84-.5,4.03l-22.07,12.74c-2.06,1.19-5.19,1.32-6.98.29Z"/>
        <path class="cls-6" d="m488.23,749.28l-22.27-12.86c-1.79-1.03-1.56-2.84.5-4.03l22.07-12.74c2.07-1.19,5.19-1.32,6.98-.29l22.27,12.86c1.79,1.03,1.56,2.84-.5,4.03l-22.07,12.74c-2.07,1.19-5.19,1.32-6.98.29Z"/>
        <path class="cls-6" d="m453.32,729.13l-22.27-12.86c-1.79-1.03-1.56-2.84.5-4.03l22.07-12.74c2.07-1.19,5.19-1.32,6.98-.29l22.27,12.86c1.79,1.03,1.56,2.84-.5,4.03l-22.07,12.74c-2.07,1.19-5.19,1.32-6.98.29Z"/>
        <path class="cls-6" d="m418.35,708.94l-47.97-27.7c-1.79-1.03-1.56-2.84.5-4.03l22.07-12.74c2.07-1.19,5.19-1.32,6.98-.29l47.97,27.7c1.79,1.03,1.56,2.84-.5,4.03l-22.07,12.74c-2.07,1.19-5.19,1.32-6.98.29Z"/>
        <path class="cls-6" d="m442.79,684.39l-38.93-22.48c-1.79-1.03-1.56-2.84.5-4.03l22.07-12.74c2.07-1.19,5.19-1.32,6.98-.29l38.93,22.48c1.79,1.03,1.56,2.84-.5,4.03l-22.07,12.74c-2.07,1.19-5.19,1.32-6.98.29Z"/>
        <path class="cls-6" d="m522.63,769.14l-22.27-12.86c-1.79-1.03-1.56-2.84.5-4.03l22.07-12.74c2.07-1.19,5.19-1.32,6.98-.29l22.27,12.86c1.79,1.03,1.56,2.84-.5,4.03l-22.07,12.74c-2.07,1.19-5.19,1.32-6.98.29Z"/>
        <path class="cls-6" d="m557.03,789l-22.27-12.86c-1.79-1.03-1.56-2.84.5-4.03l22.07-12.74c2.07-1.19,5.19-1.32,6.98-.29l22.27,12.86c1.79,1.03,1.56,2.84-.5,4.03l-22.07,12.74c-2.07,1.19-5.19,1.32-6.98.29Z"/>
        <path class="cls-6" d="m591.42,808.86l-22.27-12.86c-1.79-1.03-1.56-2.84.5-4.03l22.07-12.74c2.07-1.19,5.19-1.32,6.98-.29l22.27,12.86c1.79,1.03,1.56,2.84-.5,4.03l-22.07,12.74c-2.07,1.19-5.19,1.32-6.98.29Z"/>
        <path class="cls-6" d="m625.82,828.72l-22.27-12.86c-1.79-1.03-1.56-2.84.5-4.03l22.07-12.74c2.07-1.19,5.19-1.32,6.98-.29l22.27,12.86c1.79,1.03,1.56,2.84-.5,4.03l-22.07,12.74c-2.07,1.19-5.19,1.32-6.98.29Z"/>
        <path class="cls-6" d="m660.22,848.58l-22.27-12.86c-1.79-1.03-1.56-2.84.5-4.03l22.07-12.74c2.06-1.19,5.19-1.32,6.98-.29l22.27,12.86c1.79,1.03,1.56,2.84-.5,4.03l-22.07,12.74c-2.06,1.19-5.19,1.32-6.98.29Z"/>
        <path class="cls-6" d="m694.61,868.44l-22.27-12.86c-1.79-1.03-1.56-2.84.5-4.03l22.07-12.74c2.07-1.19,5.19-1.32,6.98-.29l22.27,12.86c1.79,1.03,1.56,2.84-.5,4.03l-22.07,12.74c-2.07,1.19-5.19,1.32-6.98.29Z"/>
        <path class="cls-6" d="m729.01,888.3l-22.27-12.86c-1.79-1.03-1.56-2.84.5-4.03l22.07-12.74c2.07-1.19,5.19-1.32,6.98-.29l22.27,12.86c1.79,1.03,1.56,2.84-.5,4.03l-22.07,12.74c-2.07,1.19-5.19,1.32-6.98.29Z"/>
        <path class="cls-6" d="m763.41,908.16l-22.27-12.86c-1.79-1.03-1.56-2.84.5-4.03l22.07-12.74c2.06-1.19,5.19-1.32,6.98-.29l22.27,12.86c1.79,1.03,1.56,2.84-.5,4.03l-22.07,12.74c-2.06,1.19-5.19,1.32-6.98.29Z"/>
        <path class="cls-6" d="m797.81,928.02l-22.27-12.86c-1.79-1.03-1.56-2.84.5-4.03l22.07-12.74c2.07-1.19,5.19-1.32,6.98-.29l22.27,12.86c1.79,1.03,1.56,2.84-.5,4.03l-22.07,12.74c-2.07,1.19-5.19,1.32-6.98.29Z"/>
        <path class="cls-6" d="m858.96,963.32l-48.6-28.06c-1.79-1.03-1.56-2.84.5-4.03l22.07-12.74c2.06-1.19,5.19-1.32,6.98-.29l48.6,28.06c1.79,1.03,1.56,2.84-.5,4.03l-22.07,12.74c-2.07,1.19-5.19,1.32-6.98.29Z"/>
        <path class="cls-6" d="m925.93,924.66l-41.02-23.68c-1.79-1.03-1.56-2.84.5-4.03l22.07-12.74c2.07-1.19,5.19-1.32,6.98-.29l41.02,23.68c1.79,1.03,1.56,2.84-.5,4.03l-22.07,12.74c-2.06,1.19-5.19,1.32-6.98.29Z"/>
        <path class="cls-6" d="m582.86,765.26l-22.27-12.86c-1.79-1.03-1.56-2.84.5-4.03l22.07-12.74c2.07-1.19,5.19-1.32,6.98-.29l22.27,12.86c1.79,1.03,1.56,2.84-.5,4.03l-22.07,12.74c-2.07,1.19-5.19,1.32-6.98.29Z"/>
        <path class="cls-6" d="m547.61,744.91l-22.27-12.86c-1.79-1.03-1.56-2.84.5-4.03l22.07-12.74c2.07-1.19,5.19-1.32,6.98-.29l22.27,12.86c1.79,1.03,1.56,2.84-.5,4.03l-22.07,12.74c-2.07,1.19-5.19,1.32-6.98.29Z"/>
        <path class="cls-6" d="m512.36,724.55l-22.27-12.86c-1.79-1.03-1.56-2.84.5-4.03l22.07-12.74c2.07-1.19,5.19-1.32,6.98-.29l22.27,12.86c1.79,1.03,1.56,2.84-.5,4.03l-22.07,12.74c-2.07,1.19-5.19,1.32-6.98.29Z"/>
        <path class="cls-6" d="m477.11,704.2l-22.27-12.86c-1.79-1.03-1.56-2.84.5-4.03l22.07-12.74c2.07-1.19,5.19-1.32,6.98-.29l22.27,12.86c1.79,1.03,1.56,2.84-.5,4.03l-22.07,12.74c-2.07,1.19-5.19,1.32-6.98.29Z"/>
        <path class="cls-6" d="m617.26,785.12l-22.27-12.86c-1.79-1.03-1.56-2.84.5-4.03l22.07-12.74c2.06-1.19,5.19-1.32,6.98-.29l22.27,12.86c1.79,1.03,1.56,2.84-.5,4.03l-22.07,12.74c-2.06,1.19-5.19,1.32-6.98.29Z"/>
        <path class="cls-6" d="m651.66,804.98l-22.27-12.86c-1.79-1.03-1.56-2.84.5-4.03l22.07-12.74c2.07-1.19,5.19-1.32,6.98-.29l22.27,12.86c1.79,1.03,1.56,2.84-.5,4.03l-22.07,12.74c-2.07,1.19-5.19,1.32-6.98.29Z"/>
        <path class="cls-6" d="m686.06,824.84l-22.27-12.86c-1.79-1.03-1.56-2.84.5-4.03l22.07-12.74c2.07-1.19,5.19-1.32,6.98-.29l22.27,12.86c1.79,1.03,1.56,2.84-.5,4.03l-22.07,12.74c-2.07,1.19-5.19,1.32-6.98.29Z"/>
        <path class="cls-6" d="m720.45,844.7l-22.27-12.86c-1.79-1.03-1.56-2.84.5-4.03l22.07-12.74c2.07-1.19,5.19-1.32,6.98-.29l22.27,12.86c1.79,1.03,1.56,2.84-.5,4.03l-22.07,12.74c-2.07,1.19-5.19,1.32-6.98.29Z"/>
        <path class="cls-6" d="m754.85,864.56l-22.27-12.86c-1.79-1.03-1.56-2.84.5-4.03l22.07-12.74c2.07-1.19,5.19-1.32,6.98-.29l22.27,12.86c1.79,1.03,1.56,2.84-.5,4.03l-22.07,12.74c-2.07,1.19-5.19,1.32-6.98.29Z"/>
        <path class="cls-6" d="m789.25,884.41l-22.27-12.86c-1.79-1.03-1.56-2.84.5-4.03l22.07-12.74c2.07-1.19,5.19-1.32,6.98-.29l22.27,12.86c1.79,1.03,1.56,2.84-.5,4.03l-22.07,12.74c-2.07,1.19-5.19,1.32-6.98.29Z"/>
        <path class="cls-6" d="m823.65,904.27l-22.27-12.86c-1.79-1.03-1.56-2.84.5-4.03l22.07-12.74c2.07-1.19,5.19-1.32,6.98-.29l22.27,12.86c1.79,1.03,1.56,2.84-.5,4.03l-22.07,12.74c-2.07,1.19-5.19,1.32-6.98.29Z"/>
        <path class="cls-6" d="m858.04,924.13l-22.27-12.86c-1.79-1.03-1.56-2.84.5-4.03l22.07-12.74c2.06-1.19,5.19-1.32,6.98-.29l22.27,12.86c1.79,1.03,1.56,2.84-.5,4.03l-22.07,12.74c-2.06,1.19-5.19,1.32-6.98.29Z"/>
        <path class="cls-6" d="m892.44,943.99l-22.27-12.86c-1.79-1.03-1.56-2.84.5-4.03l22.07-12.74c2.07-1.19,5.19-1.32,6.98-.29l22.27,12.86c1.79,1.03,1.56,2.84-.5,4.03l-22.07,12.74c-2.07,1.19-5.19,1.32-6.98.29Z"/>
        <path class="cls-6" d="m564.75,716.14l-22.27-12.86c-1.79-1.03-1.56-2.84.5-4.03l22.07-12.74c2.07-1.19,5.19-1.32,6.98-.29l22.27,12.86c1.79,1.03,1.56,2.84-.5,4.03l-22.07,12.74c-2.07,1.19-5.19,1.32-6.98.29Z"/>
        <path class="cls-6" d="m530.53,696.38l-22.27-12.86c-1.79-1.03-1.56-2.84.5-4.03l22.07-12.74c2.07-1.19,5.19-1.32,6.98-.29l22.27,12.86c1.79,1.03,1.56,2.84-.5,4.03l-22.07,12.74c-2.07,1.19-5.19,1.32-6.98.29Z"/>
        <path class="cls-6" d="m496.3,676.62l-22.27-12.86c-1.79-1.03-1.56-2.84.5-4.03l22.07-12.74c2.07-1.19,5.19-1.32,6.98-.29l22.27,12.86c1.79,1.03,1.56,2.84-.5,4.03l-22.07,12.74c-2.07,1.19-5.19,1.32-6.98.29Z"/>
        <path class="cls-6" d="m462.07,656.86l-22.27-12.86c-1.79-1.03-1.56-2.84.5-4.03l22.07-12.74c2.07-1.19,5.19-1.32,6.98-.29l22.27,12.86c1.79,1.03,1.56,2.84-.5,4.03l-22.07,12.74c-2.07,1.19-5.19,1.32-6.98.29Z"/>
        <path class="cls-6" d="m497.27,636.54l-22.27-12.86c-1.79-1.03-1.56-2.84.5-4.03l7.3-4.21c2.07-1.19,5.19-1.32,6.98-.29l22.27,12.86c1.79,1.03,1.56,2.84-.5,4.03l-7.3,4.21c-2.07,1.19-5.19,1.32-6.98.29Z"/>
        <path class="cls-6" d="m541.93,662.32l-22.27-12.86c-1.79-1.03-1.56-2.84.5-4.03l7.3-4.21c2.07-1.19,5.19-1.32,6.98-.29l22.27,12.86c1.79,1.03,1.56,2.84-.5,4.03l-7.3,4.21c-2.07,1.19-5.19,1.32-6.98.29Z"/>
        <path class="cls-6" d="m576.02,682l-22.27-12.86c-1.79-1.03-1.56-2.84.5-4.03l7.3-4.21c2.07-1.19,5.19-1.32,6.98-.29l22.27,12.86c1.79,1.03,1.56,2.84-.5,4.03l-7.3,4.21c-2.07,1.19-5.19,1.32-6.98.29Z"/>
        <path class="cls-6" d="m610.1,701.68l-22.27-12.86c-1.79-1.03-1.56-2.84.5-4.03l7.3-4.21c2.07-1.19,5.19-1.32,6.98-.29l22.27,12.86c1.79,1.03,1.56,2.84-.5,4.03l-7.3,4.21c-2.07,1.19-5.19,1.32-6.98.29Z"/>
        <path class="cls-6" d="m644.18,721.36l-22.27-12.86c-1.79-1.03-1.56-2.84.5-4.03l7.3-4.21c2.06-1.19,5.19-1.32,6.98-.29l22.27,12.86c1.79,1.03,1.56,2.84-.5,4.03l-7.3,4.21c-2.06,1.19-5.19,1.32-6.98.29Z"/>
        <path class="cls-6" d="m834.47,831.22l-22.27-12.86c-1.79-1.03-1.56-2.84.5-4.03l7.3-4.21c2.07-1.19,5.19-1.32,6.98-.29l22.27,12.86c1.79,1.03,1.56,2.84-.5,4.03l-7.3,4.21c-2.07,1.19-5.19,1.32-6.98.29Z"/>
        <path class="cls-6" d="m868.55,850.9l-22.27-12.86c-1.79-1.03-1.56-2.84.5-4.03l7.3-4.21c2.07-1.19,5.19-1.32,6.98-.29l22.27,12.86c1.79,1.03,1.56,2.84-.5,4.03l-7.3,4.21c-2.07,1.19-5.19,1.32-6.98.29Z"/>
        <path class="cls-6" d="m902.64,870.58l-22.27-12.86c-1.79-1.03-1.56-2.84.5-4.03l7.3-4.21c2.07-1.19,5.19-1.32,6.98-.29l22.27,12.86c1.79,1.03,1.56,2.84-.5,4.03l-7.3,4.21c-2.07,1.19-5.19,1.32-6.98.29Z"/>
        <path class="cls-6" d="m936.72,890.25l-22.27-12.86c-1.79-1.03-1.56-2.84.5-4.03l7.3-4.21c2.07-1.19,5.19-1.32,6.98-.29l22.27,12.86c1.79,1.03,1.56,2.84-.5,4.03l-7.3,4.21c-2.07,1.19-5.19,1.32-6.98.29Z"/>
        <path class="cls-6" d="m599.15,736l-22.27-12.86c-1.79-1.03-1.56-2.84.5-4.03l22.07-12.74c2.07-1.19,5.19-1.32,6.98-.29l22.27,12.86c1.79,1.03,1.56,2.84-.5,4.03l-22.07,12.74c-2.07,1.19-5.19,1.32-6.98.29Z"/>
        <path class="cls-6" d="m633.55,755.86l-22.27-12.86c-1.79-1.03-1.56-2.84.5-4.03l22.07-12.74c2.07-1.19,5.19-1.32,6.98-.29l22.27,12.86c1.79,1.03,1.56,2.84-.5,4.03l-22.07,12.74c-2.07,1.19-5.19,1.32-6.98.29Z"/>
        <path class="cls-6" d="m667.94,775.72l-22.27-12.86c-1.79-1.03-1.56-2.84.5-4.03l22.07-12.74c2.07-1.19,5.19-1.32,6.98-.29l22.27,12.86c1.79,1.03,1.56,2.84-.5,4.03l-22.07,12.74c-2.07,1.19-5.19,1.32-6.98.29Z"/>
        <path class="cls-6" d="m702.34,795.58l-22.27-12.86c-1.79-1.03-1.56-2.84.5-4.03l22.07-12.74c2.07-1.19,5.19-1.32,6.98-.29l22.27,12.86c1.79,1.03,1.56,2.84-.5,4.03l-22.07,12.74c-2.07,1.19-5.19,1.32-6.98.29Z"/>
        <path class="cls-6" d="m736.74,815.43l-22.27-12.86c-1.79-1.03-1.56-2.84.5-4.03l22.07-12.74c2.07-1.19,5.19-1.32,6.98-.29l22.27,12.86c1.79,1.03,1.56,2.84-.5,4.03l-22.07,12.74c-2.07,1.19-5.19,1.32-6.98.29Z"/>
        <path class="cls-6" d="m771.14,835.29l-22.27-12.86c-1.79-1.03-1.56-2.84.5-4.03l22.07-12.74c2.06-1.19,5.19-1.32,6.98-.29l22.27,12.86c1.79,1.03,1.56,2.84-.5,4.03l-22.07,12.74c-2.06,1.19-5.19,1.32-6.98.29Z"/>
        <path class="cls-6" d="m805.53,855.15l-22.27-12.86c-1.79-1.03-1.56-2.84.5-4.03l22.07-12.74c2.07-1.19,5.19-1.32,6.98-.29l22.27,12.86c1.79,1.03,1.56,2.84-.5,4.03l-22.07,12.74c-2.07,1.19-5.19,1.32-6.98.29Z"/>
        <path class="cls-6" d="m839.93,875.01l-22.27-12.86c-1.79-1.03-1.56-2.84.5-4.03l22.07-12.74c2.07-1.19,5.19-1.32,6.98-.29l22.27,12.86c1.79,1.03,1.56,2.84-.5,4.03l-22.07,12.74c-2.07,1.19-5.19,1.32-6.98.29Z"/>
        <path class="cls-6" d="m874.33,894.87l-22.27-12.86c-1.79-1.03-1.56-2.84.5-4.03l22.07-12.74c2.06-1.19,5.19-1.32,6.98-.29l22.27,12.86c1.79,1.03,1.56,2.84-.5,4.03l-22.07,12.74c-2.06,1.19-5.19,1.32-6.98.29Z"/>
        <path class="cls-6" d="m402.49,738.45l-65.6-37.87c-1.79-1.03-1.56-2.84.5-4.03l22.07-12.74c2.07-1.19,5.19-1.32,6.98-.29l65.6,37.87c1.79,1.03,1.56,2.84-.5,4.03l-22.07,12.74c-2.07,1.19-5.19,1.32-6.98.29Z"/>
        <path class="cls-6" d="m825.07,982.43l-65.6-37.87c-1.79-1.03-1.56-2.84.5-4.03l22.07-12.74c2.06-1.19,5.19-1.32,6.98-.29l65.6,37.87c1.79,1.03,1.56,2.84-.5,4.03l-22.07,12.74c-2.07,1.19-5.19,1.32-6.98.29Z"/>
        <path class="cls-6" d="m687.51,946.87l-22.27-12.86c-1.79-1.03-1.56-2.84.5-4.03l26.29-15.18c2.07-1.19,5.19-1.32,6.98-.29l22.27,12.86c1.79,1.03,1.56,2.84-.5,4.03l-26.29,15.18c-2.07,1.19-5.19,1.32-6.98.29Z"/>
        <path class="cls-6" d="m437.72,802.65l-35.62-20.57c-1.79-1.03-1.56-2.84.5-4.03l26.29-15.18c2.07-1.19,5.19-1.32,6.98-.29l35.62,20.57c1.79,1.03,1.56,2.84-.5,4.03l-26.29,15.18c-2.07,1.19-5.19,1.32-6.98.29Z"/>
        <path class="cls-6" d="m654.37,927.74l-35.62-20.57c-1.79-1.03-1.56-2.84.5-4.03l26.29-15.18c2.07-1.19,5.19-1.32,6.98-.29l35.62,20.57c1.79,1.03,1.56,2.84-.5,4.03l-26.29,15.18c-2.07,1.19-5.19,1.32-6.98.29Z"/>
        <path class="cls-6" d="m487.35,831.31l-35.62-20.57c-1.79-1.03-1.56-2.84.5-4.03l26.29-15.18c2.07-1.19,5.19-1.32,6.98-.29l35.62,20.57c1.79,1.03,1.56,2.84-.5,4.03l-26.29,15.18c-2.07,1.19-5.19,1.32-6.98.29Z"/>
        <path class="cls-6" d="m485.74,791.38l154.87,89.42c1.92,1.11,1.92,2.91,0,4.02l-26.81,15.48c-1.92,1.11-5.04,1.11-6.96,0l-154.87-89.42,33.77-19.5Z"/>
        <path class="cls-6" d="m783.65,982.88l24.81,14.32c1.47.85,1.28,2.32-.41,3.3l-10.76,6.21c-1.69.98-4.25,1.08-5.72.24l-24.81-14.32c-1.47-.85-1.28-2.32.41-3.3l10.75-6.21c1.69-.98,4.25-1.08,5.72-.24Z"/>
        <path class="cls-6" d="m748.97,962.86l24.81,14.32c1.47.85,1.28,2.32-.41,3.3l-10.76,6.21c-1.69.98-4.25,1.08-5.72.24l-24.81-14.32c-1.47-.85-1.28-2.32.41-3.3l10.75-6.21c1.69-.98,4.25-1.08,5.72-.24Z"/>
        <path class="cls-6" d="m714.57,943l24.81,14.32c1.47.85,1.28,2.32-.41,3.3l-10.75,6.21c-1.69.98-4.25,1.08-5.72.24l-24.81-14.32c-1.47-.85-1.28-2.32.41-3.3l10.75-6.21c1.69-.98,4.25-1.08,5.72-.24Z"/>
        <path class="cls-6" d="m767.96,951.89l24.81,14.32c1.47.85,1.28,2.32-.41,3.3l-10.76,6.21c-1.69.98-4.25,1.08-5.72.24l-24.81-14.32c-1.47-.85-1.28-2.33.41-3.3l10.76-6.21c1.69-.98,4.25-1.08,5.72-.24Z"/>
      </g>
      <path class="cls-12" d="m1132,911.71l-657.14-379.4c-10.33-5.97-15.73-20.5-12.05-32.47L611.42,17.33c3.68-11.97,15.04-16.83,25.38-10.86l657.14,379.4c10.33,5.97,15.73,20.5,12.05,32.47l-148.61,482.51c-3.68,11.97-15.04,16.83-25.38,10.86Z"/>
      <path class="cls-9" d="m1125.81,894.82l-637.39-368.31c-9.89-5.71-15.05-19.62-11.53-31.07L618.96,34.16c3.52-11.45,14.39-16.11,24.28-10.4l637.39,368.31c9.89,5.71,15.05,19.62,11.53,31.07l-142.08,461.28c-3.52,11.45-14.39,16.11-24.28,10.4Z"/>
      <path class="cls-4" d="m1125.81,894.82l-637.39-368.31c-9.89-5.71-15.05-19.62-11.53-31.07L618.96,34.16c3.52-11.45,14.39-16.11,24.28-10.4l637.39,368.31c9.89,5.71,15.05,19.62,11.53,31.07l-142.08,461.28c-3.52,11.45-14.39,16.11-24.28,10.4Z"/>
      <path class="cls-4" d="m1125.81,894.82l-637.39-368.31c-9.89-5.71-15.05-19.62-11.53-31.07L618.96,34.16c3.52-11.45,14.39-16.11,24.28-10.4l637.39,368.31c9.89,5.71,15.05,19.62,11.53,31.07l-142.08,461.28c-3.52,11.45-14.39,16.11-24.28,10.4Z"/>
      <path class="cls-7" d="m1091.56,753.85l-431.48-249.12c-6.78-3.92-10.33-13.46-7.91-21.32l97.58-316.82c2.42-7.86,9.88-11.05,16.66-7.13l431.48,249.12c6.79,3.92,10.33,13.46,7.91,21.32l-97.58,316.82c-2.42,7.86-9.88,11.05-16.66,7.13Z"/>
      <path class="cls-15" d="m1033.26,761.5l-431.48-249.12c-6.79-3.92-10.33-13.46-7.91-21.32l97.58-316.82c2.42-7.86,9.88-11.05,16.66-7.13l431.48,249.12c6.78,3.92,10.33,13.46,7.91,21.32l-97.58,316.82c-2.42,7.86-9.88,11.05-16.66,7.13Z"/>
      <g class="cls-11">
        <path class="cls-6" d="m1033.26,761.5l-431.48-249.12c-6.79-3.92-10.33-13.46-7.91-21.32l97.58-316.82c2.42-7.86,9.88-11.05,16.66-7.13l431.48,249.12c6.78,3.92,10.33,13.46,7.91,21.32l-97.58,316.82c-2.42,7.86-9.88,11.05-16.66,7.13Z"/>
      </g>
      <path class="cls-2" d="m1139.59,416.23l-431.48-249.12c-4.25-2.46-8.77-2.11-12.14.41,2.03-.06,4.16.4,6.23,1.6l431.48,249.12c6.78,3.92,10.32,13.46,7.91,21.32l-97.58,316.82c-.9,2.93-2.51,5.21-4.52,6.72,4.63-.14,8.75-3.27,10.43-8.73l97.58-316.82c2.42-7.86-1.12-17.4-7.91-21.32Z"/>
      <path class="cls-4" d="m489.06,1020.21c-5.95,0-11.64-1.24-15.99-3.75h0s-172.87-99.8-172.87-99.8c-4.58-2.65-7.1-6.43-7.1-10.65,0-4.9,3.47-9.72,9.53-13.21l88.98-51.38c10.88-6.27,26.83-6.89,36.35-1.4l172.87,99.81c4.58,2.65,7.1,6.43,7.11,10.65,0,4.9-3.47,9.72-9.53,13.21l-88.99,51.38c-5.9,3.4-13.3,5.14-20.35,5.14Zm-77.01-178.89c-6.25,0-12.89,1.5-17.94,4.42l-88.98,51.38c-4.47,2.58-7.04,5.83-7.04,8.89s2.51,5.11,4.61,6.33l172.87,99.81c7.84,4.52,22.19,3.89,31.35-1.41l88.99-51.37c4.47-2.58,7.04-5.82,7.04-8.89s-2.51-5.11-4.61-6.33l-172.87-99.81c-3.51-2.03-8.33-3.02-13.41-3.02Z"/>
    </g>
    <g>
      <g>
        <path class="cls-2" d="m813.21,333.32l-26.68-15.4c-2.47-1.43-3.8-4.86-2.97-7.67h0c.84-2.81,3.52-3.93,6-2.5l26.68,15.4c2.47,1.43,3.8,4.86,2.96,7.67h0c-.84,2.81-3.52,3.92-6,2.5Z"/>
        <path class="cls-2" d="m876.75,370.01l-39.33-22.71c-2.47-1.43-3.8-4.86-2.96-7.67h0c.84-2.81,3.52-3.93,6-2.5l39.33,22.71c2.47,1.43,3.8,4.86,2.97,7.67h0c-.84,2.81-3.52,3.92-6,2.5Z"/>
        <path class="cls-2" d="m759.41,452.09l-26.68-15.4c-2.47-1.43-3.8-4.86-2.97-7.67h0c.84-2.81,3.52-3.93,6-2.5l26.68,15.4c2.47,1.43,3.8,4.86,2.96,7.67h0c-.84,2.81-3.52,3.93-6,2.5Z"/>
        <path class="cls-2" d="m816.05,484.79l-39.33-22.71c-2.47-1.43-3.8-4.86-2.96-7.67h0c.84-2.81,3.52-3.92,6-2.5l39.33,22.71c2.47,1.43,3.8,4.86,2.96,7.67h0c-.84,2.81-3.52,3.93-6,2.5Z"/>
        <path class="cls-2" d="m733.3,312.16l-16.66-9.62c-2.47-1.43-3.8-4.86-2.96-7.67h0c.84-2.81,3.52-3.92,6-2.5l16.66,9.62c2.47,1.43,3.8,4.86,2.96,7.67h0c-.84,2.81-3.52,3.93-6,2.5Z"/>
        <path class="cls-2" d="m783.44,366.08l-50.92-29.4c-2.47-1.43-3.8-4.86-2.96-7.67h0c.84-2.81,3.52-3.93,6-2.5l50.92,29.4c2.47,1.43,3.8,4.86,2.96,7.67h0c-.84,2.81-3.52,3.92-6,2.5Z"/>
        <path class="cls-2" d="m736.48,388.91l-16.66-9.62c-2.47-1.43-3.8-4.86-2.96-7.67h0c.84-2.81,3.52-3.93,6-2.5l16.66,9.62c2.47,1.43,3.8,4.86,2.97,7.67h0c-.84,2.81-3.52,3.92-6,2.5Z"/>
        <path class="cls-2" d="m822.19,538.28l-44.51-25.7c-2.47-1.43-3.8-4.86-2.97-7.67h0c.84-2.81,3.52-3.93,6-2.5l44.51,25.7c2.47,1.43,3.8,4.86,2.96,7.67h0c-.84,2.81-3.52,3.93-6,2.5Z"/>
        <path class="cls-2" d="m717.8,428.07l-10.7-6.18c-2.47-1.43-3.8-4.86-2.97-7.67h0c.84-2.81,3.52-3.92,6-2.5l10.7,6.18c2.47,1.43,3.8,4.86,2.96,7.67h0c-.84,2.81-3.52,3.93-6,2.5Z"/>
        <path class="cls-2" d="m707.68,472.16l-13.28-7.67c-2.47-1.43-3.8-4.86-2.96-7.67h0c.84-2.81,3.52-3.93,6-2.5l13.28,7.67c2.47,1.43,3.8,4.86,2.96,7.67h0c-.84,2.81-3.52,3.93-6,2.5Z"/>
        <path class="cls-2" d="m759.36,502l-35.02-20.22c-2.47-1.43-3.8-4.86-2.96-7.67h0c.84-2.81,3.52-3.92,6-2.5l35.02,20.22c2.47,1.43,3.8,4.86,2.96,7.67h0c-.84,2.81-3.52,3.92-6,2.5Z"/>
        <path class="cls-2" d="m713.22,500.33l-25.18-14.54c-2.48-1.43-3.8-4.86-2.97-7.67h0c.84-2.81,3.52-3.93,6-2.5l25.18,14.54c2.47,1.43,3.8,4.86,2.96,7.67h0c-.84,2.81-3.52,3.93-6,2.5Z"/>
        <path class="cls-2" d="m860.38,560.43l-16.17-9.34c-2.47-1.43-3.8-4.86-2.96-7.67h0c.84-2.81,3.52-3.93,6-2.5l16.17,9.34c2.47,1.43,3.8,4.86,2.97,7.67h0c-.84,2.81-3.52,3.93-6,2.5Z"/>
        <path class="cls-2" d="m798.47,424.7l-44.51-25.7c-2.47-1.43-3.8-4.86-2.96-7.67h0c.84-2.81,3.52-3.93,6-2.5l44.51,25.7c2.47,1.43,3.8,4.86,2.97,7.67h0c-.84,2.81-3.52,3.93-6,2.5Z"/>
      </g>
      <path class="cls-14" d="m803.74,402.77l-77.57-44.79c-2.47-1.43-3.8-4.86-2.97-7.67h0c.84-2.81,3.52-3.92,6-2.5l77.57,44.79c2.47,1.43,3.8,4.86,2.96,7.67h0c-.84,2.81-3.52,3.93-6,2.5Z"/>
      <path class="cls-14" d="m757.97,426.29l-44.51-25.7c-2.47-1.43-3.8-4.86-2.96-7.67h0c.84-2.81,3.52-3.93,6-2.5l44.51,25.7c2.47,1.43,3.8,4.86,2.97,7.67h0c-.84,2.81-3.52,3.92-6,2.5Z"/>
      <path class="cls-14" d="m832.23,444.19l-16.17-9.34c-2.47-1.43-3.8-4.86-2.97-7.67h0c.84-2.81,3.52-3.93,6-2.5l16.17,9.34c2.47,1.43,3.8,4.86,2.96,7.67h0c-.84,2.81-3.52,3.93-6,2.5Z"/>
      <path class="cls-14" d="m996.72,439.28l-95.76-55.29c-2.47-1.43-3.8-4.86-2.97-7.67h0c.84-2.81,3.52-3.92,6-2.5l95.76,55.29c2.47,1.43,3.8,4.86,2.96,7.67h0c-.84,2.81-3.52,3.93-6,2.5Z"/>
      <path class="cls-8" d="m754.25,474.08l-53.5-30.89c-2.47-1.43-3.8-4.86-2.97-7.67h0c.84-2.81,3.52-3.93,6-2.5l53.5,30.89c2.47,1.43,3.8,4.86,2.96,7.67h0c-.84,2.81-3.52,3.92-6,2.5Z"/>
      <path class="cls-8" d="m762.32,303.95l-39.33-22.71c-2.47-1.43-3.8-4.86-2.96-7.67h0c.84-2.81,3.52-3.93,6-2.5l39.33,22.71c2.47,1.43,3.8,4.86,2.97,7.67h0c-.84,2.81-3.52,3.92-6,2.5Z"/>
      <path class="cls-14" d="m705,520.56l-45.56-26.3c-2.47-1.43-3.8-4.86-2.96-7.67h0c.84-2.81,3.52-3.93,6-2.5l45.56,26.3c2.47,1.43,3.8,4.86,2.97,7.67h0c-.84,2.81-3.52,3.92-6,2.5Z"/>
    </g>
  </g>
</svg>